<svg width="714" height="969" xmlns="http://www.w3.org/2000/svg" xmlns:svg="http://www.w3.org/2000/svg">
  <path transform="translate(5, 837) scale(1,-1)" d="M576 704v128h-128v-128h-128v-128h128v-128h128v128h128v128h-128z m-256-448c-53 0-95-11-128-29v303c38 22 64 63 64 110 0 71-57 128-128 128s-128-57-128-128c0-47 26-88 64-110v-419c-38-22-64-63-64-110 0-71 57-128 128-128s128 57 128 128c0 34-13 64-34 87 19 23 49 41 98 41 254 0 256 256 256 256h-128s0-128-128-128z m-192 448c35 0 64-29 64-64s-29-64-64-64-64 29-64 64 29 64 64 64z m0-768c-35 0-64 29-64 64s29 64 64 64 64-29 64-64-29-64-64-64z" fill="#FFF" stroke="#000" stroke-width="10" />
</svg>
